<svg xmlns="http://www.w3.org/2000/svg" width="115.923" height="143.404" viewBox="0 0 115.923 143.404">
  <g id="Group_107" data-name="Group 107" transform="translate(-7440 -580)">
    <g id="messages-people-person-bubble-circle-1" transform="translate(7461.25 600.25)">
      <path id="Path_3182" data-name="Path 3182" d="M29.668.75a16.836,16.836,0,0,0-12.686,28l-2.117,12.18,11.03-6.8A16.9,16.9,0,1,0,29.668.75Z" transform="translate(26.666 0)" fill="none" stroke="#0185fe" stroke-linecap="round" stroke-linejoin="round" stroke-width="5.5"/>
      <circle id="Ellipse_10" data-name="Ellipse 10" cx="10.875" cy="10.875" r="10.875" transform="translate(9.208 29.75)" stroke-width="5.5" stroke="#0185fe" stroke-linecap="round" stroke-linejoin="round" fill="none"/>
      <path id="Path_3183" data-name="Path 3183" d="M39.417,34.91a19.507,19.507,0,0,0-38.667,0" transform="translate(0 38.34)" fill="none" stroke="#0185fe" stroke-linecap="round" stroke-linejoin="round" stroke-width="5.5"/>
    </g>
    <g id="single-man-book" transform="translate(7440 582.25)">
      <path id="Path_3186" data-name="Path 3186" d="M112.923,34.74H16.74A13.74,13.74,0,0,1,3,21" transform="translate(0 103.414)" fill="none" stroke="#0185fe" stroke-linecap="round" stroke-linejoin="round" stroke-width="6"/>
      <path id="Path_3187" data-name="Path 3187" d="M21.321.75A18.321,18.321,0,0,0,3,19.071V124.414a13.74,13.74,0,0,1,13.74-13.74h87.023a9.16,9.16,0,0,0,9.16-9.16V9.91a9.16,9.16,0,0,0-9.16-9.16Z" transform="translate(0 0)" fill="none" stroke="#0185fe" stroke-linecap="round" stroke-linejoin="round" stroke-width="6"/>
      <line id="Line_272" data-name="Line 272" y1="27.481" transform="translate(103.763 110.673)" fill="none" stroke="#0185fe" stroke-linecap="round" stroke-linejoin="round" stroke-width="6"/>
    </g>
  </g>
</svg>
