<svg xmlns="http://www.w3.org/2000/svg" width="25.937" height="23.247" viewBox="0 0 25.937 23.247">
  <defs>
    <style>
      .cls-1 {
        fill: none;
        stroke: #0c5db8;
        stroke-linecap: round;
        stroke-linejoin: round;
        stroke-width: 2px;
      }
    </style>
  </defs>
  <g id="developer-community-github" transform="translate(0.271 -1)">
    <path id="Path_3173" data-name="Path 3173" class="cls-1" d="M20.435,16.251c0-6.374-4.387-3.75-7.967-3.75S4.5,9.877,4.5,16.251a3.718,3.718,0,0,0,3.718,3.665h8.5a3.718,3.718,0,0,0,3.718-3.665Z" transform="translate(0.235 0.621)"/>
    <path id="Path_3174" data-name="Path 3174" class="cls-1" d="M23.092,9.861h0S26.013,4.9,22.476,2c-2.188,0-5.524,3.591-5.524,3.591h0a15.436,15.436,0,0,0-8.5,0S5.149,2,2.982,2c-3.463,2.826-.8,7.638-.669,7.861a9.678,9.678,0,0,0-1.53,6.268c.234,3.4,3.113,7.118,6.523,7.118H18.088c3.421,0,6.257-3.718,6.523-7.128A9.657,9.657,0,0,0,23.092,9.861Z" transform="translate(0)"/>
    <path id="Path_3175" data-name="Path 3175" class="cls-1" d="M15.551,16.793c-.3,0-.531-.361-.531-.8s.234-.8.531-.8.531.361.531.8-.234.8-.531.8" transform="translate(0.89 0.823)"/>
    <path id="Path_3176" data-name="Path 3176" class="cls-1" d="M8.551,16.793c-.3,0-.531-.361-.531-.8s.234-.8.531-.8.531.361.531.8-.234.8-.531.8" transform="translate(0.454 0.823)"/>
  </g>
</svg>
