<svg width="138" height="138" viewBox="0 0 138 138" fill="none" xmlns="http://www.w3.org/2000/svg">
<path d="M25.2671 112.738V68.9883M25.2499 69H29.6249C33.1059 69 36.4443 70.3828 38.9057 72.8442C41.3671 75.3057 42.7499 78.644 42.7499 82.125C42.7499 85.606 41.3671 88.9444 38.9057 91.4058C36.4443 93.8672 33.1059 95.25 29.6249 95.25H25.2499M60.2671 112.738V68.9883M60.2499 69H64.6249C68.1059 69 71.4443 70.3828 73.9057 72.8442C76.3671 75.3057 77.7499 78.644 77.7499 82.125C77.7499 85.606 76.3671 88.9444 73.9057 91.4058C71.4443 93.8672 68.1059 95.25 64.6249 95.25H60.2499M104.017 112.738V68.9883M95.2671 68.9883H112.767M99.6421 3.36328V29.6133C99.6421 31.9339 100.564 34.1595 102.205 35.8005C103.846 37.4414 106.071 38.3633 108.392 38.3633H134.642M132.081 31.4274C133.721 33.0678 134.642 35.2918 134.642 37.6108V121.5C134.641 123.224 134.299 124.931 133.638 126.523C132.977 128.115 132.008 129.562 130.788 130.779C129.567 131.997 128.119 132.963 126.525 133.62C124.931 134.278 123.224 134.616 121.5 134.613H16.4996C13.0237 134.609 9.69155 133.225 7.23425 130.767C4.77695 128.309 3.39518 124.976 3.3921 121.5V16.4999C3.389 13.02 4.76804 9.68125 7.22601 7.21781C9.68397 4.75438 13.0196 3.36792 16.4996 3.36328H100.395C102.714 3.36378 104.938 4.28484 106.578 5.92411L132.081 31.4274Z" stroke="#0185FE" stroke-width="5.5" stroke-linecap="round" stroke-linejoin="round"/>
</svg>
