<svg xmlns="http://www.w3.org/2000/svg" width="29.035" height="23.69" viewBox="0 0 29.035 23.69">
  <defs>
    <style>
      .cls-1 {
        fill: none;
        stroke: #0c5db8;
        stroke-linecap: round;
        stroke-linejoin: round;
        stroke-width: 2px;
      }
    </style>
  </defs>
  <path id="social-media-twitter" class="cls-1" d="M27.865,7.475l-2.54-1.089,1.331-2.9-3.1,1.028A5.392,5.392,0,0,0,14.487,8.5v1.21C10.2,10.6,6.467,8.261,3,4.27Q2.088,9.108,4.81,11.527l-3.98-.6a5.5,5.5,0,0,0,5.141,4.839l-3.326,1.21c1.21,2.419,3.411,2.794,6.351,3.024A13.935,13.935,0,0,1,.83,22.414c15.435,6.859,24.495-3.218,24.495-12.1v-1Z" transform="translate(0.17 -2.06)"/>
</svg>
