<svg width="152" height="152" viewBox="0 0 152 152" fill="none" xmlns="http://www.w3.org/2000/svg">
<path d="M89.2928 119.2H42.4C39.8539 119.2 37.4121 118.189 35.6118 116.388C33.8114 114.588 32.8 112.146 32.8 109.6M32.8 109.6V13.6M32.8 109.6H13.6C11.0539 109.6 8.61212 108.589 6.81178 106.788C5.01143 104.988 4 102.546 4 100V23.2C4 20.6539 5.01143 18.2121 6.81178 16.4118C8.61212 14.6114 11.0539 13.6 13.6 13.6H32.8M32.8 13.6C32.8 11.0539 33.8114 8.61212 35.6118 6.81178C37.4121 5.01143 39.8539 4 42.4 4H109.6C112.146 4 114.588 5.01143 116.388 6.81178C118.189 8.61212 119.2 11.0539 119.2 13.6M119.2 13.6V85.3184M119.2 13.6H138.4C140.946 13.6 143.388 14.6114 145.188 16.4118C146.989 18.2121 148 20.6539 148 23.2V100M52 28H100M52 52H100M52 76H71.2M131.027 131.027L120.845 148L103.878 103.878L148 120.845L131.027 131.027ZM131.027 131.027L148 148" stroke="#0085FF" stroke-width="8" stroke-linecap="round" stroke-linejoin="round"/>
</svg>
